<svg width="49" height="48" viewBox="0 0 49 48" fill="none" xmlns="http://www.w3.org/2000/svg">
<path d="M7.35966 1.12608C6.95003 1.36084 6.61875 1.7112 6.40726 2.13332C6.19578 2.55543 6.11349 3.03055 6.1707 3.4992L9.79758 42.421C10.0294 44.3107 12.2643 45.1915 13.7225 43.9675L20.5457 38.2411L23.9777 44.1859C25.9515 47.604 29.9153 47.9635 33.3329 45.9898C36.752 44.016 38.4224 40.404 36.4486 36.9859L33.0286 31.0622L41.2673 28.0646C43.0563 27.4133 43.411 25.0382 41.8904 23.8925L9.9963 1.29024C9.62107 1.00794 9.17126 0.841924 8.7026 0.812745C8.23394 0.783565 7.76702 0.892508 7.35966 1.12608ZM11.6211 8.52192L35.4699 25.0661L26.0077 28.5091L26.0518 28.5778L32.2918 39.3859C32.9773 40.573 32.1209 41.1475 30.9334 41.833C29.7459 42.5184 28.8205 42.973 28.135 41.7859L21.895 30.9778L21.8456 30.8827L14.0245 37.4477L11.6211 8.52192Z" fill="white"/>
</svg>
