<svg width="41" height="40" viewBox="0 0 41 40" fill="none" xmlns="http://www.w3.org/2000/svg">
<path d="M17.4766 3.56521C17.7595 3.73805 17.9621 4.01619 18.04 4.33843C18.1178 4.66068 18.0644 5.00065 17.8916 5.28355C17.7642 5.49123 17.7106 5.73577 17.7393 5.9777C17.768 6.21963 17.8774 6.44481 18.0499 6.61688L18.2133 6.77855C19.1933 7.76021 19.5549 9.20188 19.1549 10.5285C19.0558 10.8418 18.8373 11.1035 18.5467 11.2569C18.2562 11.4103 17.9169 11.4431 17.6023 11.3482C17.2877 11.2534 17.0231 11.0385 16.8658 10.75C16.7084 10.4615 16.671 10.1227 16.7616 9.80688C16.8275 9.58784 16.8328 9.35504 16.7771 9.13319C16.7213 8.91135 16.6066 8.70874 16.4449 8.54688L16.2833 8.38355C15.7145 7.81482 15.3536 7.07127 15.2587 6.27255C15.1637 5.47384 15.3403 4.66641 15.7599 3.98022C15.8454 3.84 15.9576 3.718 16.0902 3.62117C16.2228 3.52435 16.3732 3.45459 16.5328 3.4159C16.6923 3.37721 16.858 3.37033 17.0202 3.39566C17.1824 3.421 17.3381 3.47805 17.4783 3.56355M29.9833 7.86855C30.3081 7.93407 30.5936 8.12589 30.7771 8.40186C30.9605 8.67782 31.0269 9.01534 30.9616 9.34021L30.7216 10.5402C30.3916 12.1902 29.2016 13.5402 27.6049 14.0719C26.8583 14.3219 26.3016 14.9502 26.1483 15.7219L25.9083 16.9219C25.8761 17.0829 25.8125 17.2359 25.7212 17.3723C25.6299 17.5088 25.5126 17.6258 25.376 17.7169C25.2394 17.808 25.0862 17.8713 24.9252 17.9032C24.7641 17.935 24.5984 17.9349 24.4374 17.9027C24.2764 17.8705 24.1234 17.807 23.987 17.7156C23.8505 17.6243 23.7335 17.507 23.6424 17.3704C23.5513 17.2339 23.488 17.0807 23.4561 16.9196C23.4243 16.7586 23.4244 16.5929 23.4566 16.4319L23.6966 15.2319C24.0266 13.5802 25.2166 12.2319 26.8133 11.6985C27.5599 11.4519 28.1166 10.8219 28.2716 10.0485L28.5099 8.84855C28.5422 8.68755 28.6058 8.53449 28.6973 8.39811C28.7887 8.26172 28.9061 8.14468 29.0427 8.05367C29.1794 7.96267 29.3326 7.89948 29.4937 7.86771C29.6548 7.83595 29.8206 7.83623 29.9816 7.86855M36.1816 22.6002C35.8864 22.4704 35.5602 22.4281 35.2417 22.4783C34.9232 22.5286 34.6258 22.6692 34.3849 22.8835C33.7273 23.4673 32.9026 23.8289 32.0277 23.9172C31.1529 24.0054 30.2725 23.8158 29.5116 23.3752L29.1566 23.1719C29.0143 23.0898 28.8896 22.9805 28.7896 22.8502C28.6896 22.72 28.6162 22.5713 28.5736 22.4126C28.531 22.254 28.5202 22.0885 28.5415 21.9257C28.5629 21.7629 28.6162 21.6058 28.6983 21.4635C28.7803 21.3213 28.8896 21.1966 29.0199 21.0965C29.1502 20.9965 29.2989 20.9231 29.4575 20.8806C29.6161 20.838 29.7816 20.8271 29.9444 20.8485C30.1073 20.8699 30.2643 20.9231 30.4066 21.0052L30.7616 21.2102C31.3916 21.5735 32.1816 21.4935 32.7266 21.0119C33.3244 20.4813 34.0617 20.1331 34.8512 20.0084C35.6407 19.8838 36.4494 19.9879 37.1816 20.3085L37.6683 20.5202C37.9721 20.653 38.2108 20.9012 38.3318 21.21C38.4527 21.5188 38.4461 21.863 38.3132 22.1669C38.1804 22.4708 37.9323 22.7095 37.6235 22.8304C37.3147 22.9514 36.9705 22.9447 36.6666 22.8119L36.1816 22.6002ZM12.0466 6.56688C12.1298 6.48393 12.2284 6.41817 12.337 6.37336C12.4456 6.32855 12.562 6.30557 12.6794 6.30572C12.7969 6.30588 12.9132 6.32917 13.0216 6.37426C13.1301 6.41936 13.2286 6.48538 13.3116 6.56855C13.3945 6.65172 13.4603 6.75041 13.5051 6.859C13.5499 6.96758 13.5729 7.08393 13.5727 7.20139C13.5726 7.31886 13.5493 7.43514 13.5042 7.54361C13.4591 7.65208 13.3931 7.7506 13.3099 7.83355C13.1419 8.00108 12.9143 8.09502 12.6771 8.09471C12.4398 8.09439 12.2124 7.99985 12.0449 7.83188C11.8774 7.66391 11.7834 7.43627 11.7838 7.19904C11.7841 6.9618 11.8786 6.73441 12.0466 6.56688ZM22.0266 11.9285C21.9435 11.8455 21.8449 11.7796 21.7364 11.7346C21.6279 11.6897 21.5116 11.6666 21.3941 11.6666C21.2766 11.6666 21.1603 11.6897 21.0518 11.7346C20.9433 11.7796 20.8446 11.8455 20.7616 11.9285C20.6785 12.0116 20.6126 12.1102 20.5677 12.2187C20.5227 12.3273 20.4996 12.4436 20.4996 12.561C20.4996 12.6785 20.5227 12.7948 20.5677 12.9034C20.6126 13.0119 20.6785 13.1105 20.7616 13.1935C20.8448 13.2766 20.9435 13.3425 21.0521 13.3874C21.1607 13.4323 21.2771 13.4554 21.3947 13.4553C21.5122 13.4552 21.6286 13.432 21.7372 13.3869C21.8457 13.3419 21.9444 13.2759 22.0274 13.1927C22.1105 13.1095 22.1763 13.0108 22.2213 12.9022C22.2662 12.7936 22.2892 12.6772 22.2892 12.5596C22.2891 12.4421 22.2659 12.3257 22.2208 12.2171C22.1758 12.1086 22.1098 12.0116 22.0266 11.9285ZM29.0949 16.9285C29.1779 16.8455 29.2764 16.7796 29.3848 16.7346C29.4932 16.6896 29.6094 16.6664 29.7268 16.6663C29.8442 16.6662 29.9605 16.6893 30.069 16.7341C30.1774 16.779 30.276 16.8448 30.3591 16.9277C30.4421 17.0107 30.5081 17.1092 30.5531 17.2176C30.598 17.326 30.6212 17.4422 30.6213 17.5596C30.6214 17.677 30.5983 17.7933 30.5535 17.9018C30.5086 18.0102 30.4429 18.1088 30.3599 18.1919C30.1924 18.3596 29.9651 18.454 29.728 18.4541C29.4909 18.4543 29.2635 18.3602 29.0958 18.1927C28.928 18.0252 28.8337 17.7979 28.8335 17.5608C28.8334 17.3237 28.9274 17.0963 29.0949 16.9285ZM33.5282 25.5219C33.3605 25.3541 33.133 25.2599 32.8958 25.2599C32.6585 25.2599 32.431 25.3541 32.2633 25.5219C32.0955 25.6896 32.0013 25.9171 32.0013 26.1544C32.0013 26.3916 32.0955 26.6191 32.2633 26.7869C32.3463 26.8699 32.4449 26.9358 32.5534 26.9808C32.662 27.0257 32.7783 27.0489 32.8958 27.0489C33.0132 27.0489 33.1295 27.0257 33.2381 26.9808C33.3466 26.9358 33.4452 26.8699 33.5282 26.7869C33.6113 26.7038 33.6772 26.6052 33.7221 26.4967C33.7671 26.3882 33.7902 26.2718 33.7902 26.1544C33.7902 26.0369 33.7671 25.9206 33.7221 25.8121C33.6772 25.7036 33.6113 25.6049 33.5282 25.5219ZM12.9533 33.7352C9.18325 34.9785 7.19658 35.4985 6.09825 34.4002C4.88158 33.1835 5.64992 30.8785 7.18659 26.2702L10.0033 17.8219C11.0566 14.6619 11.6749 12.8052 12.7066 12.0519L12.6983 12.0952C12.6158 12.4997 12.5391 12.9053 12.4683 13.3119C12.2753 14.3857 12.1031 15.4631 11.9516 16.5435C11.5916 19.0985 11.2599 22.3635 11.4316 24.9719C11.5349 26.5502 11.8633 28.5085 12.1566 30.0385C12.3173 30.8761 12.4907 31.7112 12.6766 32.5435L12.7099 32.6985L12.9533 33.7352ZM22.2316 30.6435L22.6766 30.4952C26.5066 29.2185 28.4216 28.5802 28.7766 27.0702C29.1349 25.5602 27.7066 24.1319 24.8516 21.2769L22.0366 18.4619L22.0283 18.4869L21.8916 18.9319C21.7783 19.3152 21.6249 19.8485 21.4733 20.4585C21.1616 21.7069 20.8783 23.1619 20.8783 24.2585C20.8783 25.3552 21.1616 26.8102 21.4733 28.0585C21.6494 28.7606 21.8473 29.4571 22.0666 30.1469L22.0749 30.1752L22.0783 30.1819L22.2316 30.6435ZM15.1666 12.5069L15.2499 12.0985C16.2716 12.6985 17.4816 13.9069 19.2199 15.6469L20.0583 16.4835L19.7049 17.5502L19.6883 17.5969L19.6466 17.7302L19.4966 18.2152C19.3749 18.6252 19.2116 19.1985 19.0466 19.8535C18.7266 21.1352 18.3783 22.8385 18.3783 24.2585C18.3783 25.6785 18.7283 27.3819 19.0466 28.6635C19.2363 29.4224 19.4503 30.175 19.6883 30.9202L19.8599 31.4352L15.3349 32.9435L15.1566 32.1769L15.1483 32.1402L15.1149 31.9952L14.9933 31.4452C14.8933 30.9752 14.7549 30.3185 14.6099 29.5685C14.3216 28.0569 14.0183 26.2252 13.9266 24.8085C13.7716 22.4685 14.0716 19.4152 14.4266 16.8919C14.6301 15.4514 14.8713 14.0164 15.1499 12.5885L15.1616 12.5269L15.1649 12.5102L15.1666 12.5069ZM25.4233 3.68355C25.6749 3.65022 26.1366 3.63355 26.5016 4.00022C26.8666 4.36688 26.8516 4.82688 26.8183 5.08022C26.7714 5.34998 26.7079 5.61659 26.6283 5.87855L26.5683 6.08855L26.6766 6.25855C26.8216 6.49022 26.9783 6.73855 27.0749 6.95855C27.1833 7.20855 27.3066 7.62855 27.0749 8.06855C26.8466 8.50188 26.4383 8.64522 26.1799 8.70355C25.9433 8.75688 25.6483 8.78021 25.3682 8.80355L25.1566 8.82021H25.1383L24.9849 9.00688C24.8016 9.22855 24.6133 9.45855 24.4349 9.62355C24.2449 9.79522 23.8883 10.0619 23.3933 9.99521C22.8816 9.92522 22.6149 9.55355 22.4866 9.32188C22.3646 9.08186 22.2599 8.83345 22.1733 8.57855L22.1066 8.39522L21.9233 8.32855C21.669 8.24236 21.4211 8.13821 21.1816 8.01688C20.9483 7.88688 20.5783 7.62188 20.5083 7.11021C20.4416 6.61355 20.7083 6.25855 20.8799 6.06855C21.0433 5.89022 21.2749 5.70188 21.4966 5.51855L21.6833 5.36522V5.34855L21.6999 5.13522C21.7216 4.85355 21.7449 4.55855 21.7999 4.32355C21.8583 4.06355 21.9999 3.65688 22.4333 3.42855C22.8749 3.19521 23.2949 3.32021 23.5433 3.42855C23.7649 3.52355 24.0133 3.68022 24.2433 3.82688L24.4149 3.93355L24.6249 3.87522C24.8983 3.79688 25.1833 3.71522 25.4233 3.68355ZM37.3999 17.4869C38.1782 16.7085 38.4666 15.6602 38.0399 14.7369C37.7149 14.0369 37.0616 13.5819 36.2566 13.4102C36.0866 12.6052 35.6299 11.9519 34.9299 11.6269C34.0066 11.2019 32.9582 11.4885 32.1799 12.2685C31.7299 12.7185 31.5249 13.3235 31.4299 13.8635C31.3299 14.4135 31.3299 14.9969 31.3616 15.5069C31.4021 16.1326 31.4929 16.7541 31.6333 17.3652C31.7083 17.6652 31.9532 17.9485 32.2533 18.0219H32.2566L32.3016 18.0335C32.4765 18.0753 32.6527 18.1115 32.8299 18.1419C33.1716 18.2019 33.6449 18.2735 34.1599 18.3052C34.6699 18.3385 35.2532 18.3369 35.8032 18.2385C36.3432 18.1435 36.9482 17.9385 37.3999 17.4885" fill="white"/>
</svg>
