<svg width="41" height="40" viewBox="0 0 41 40" fill="none" xmlns="http://www.w3.org/2000/svg">
<path d="M35.0836 28.1881H5.91797V29.2019C5.92097 29.3268 5.95061 29.4499 6.00464 29.5626C6.04598 29.6489 6.10129 29.7274 6.1676 29.7958L6.23779 29.8605L6.24146 29.8641L6.35559 29.9508C6.62997 30.1415 6.95786 30.2435 7.29431 30.2401C7.29838 30.2401 7.30245 30.2395 7.30652 30.2395H33.6932C34.1165 30.2395 34.4929 30.093 34.7443 29.8763C34.9896 29.6648 35.0836 29.4213 35.0836 29.2129V28.1881ZM32.1637 10.2944C32.1502 10.1588 32.0906 10.031 31.9934 9.93372C31.8962 9.8364 31.7684 9.77644 31.6327 9.76282L31.5741 9.75977H9.46289L9.4043 9.76282C9.26855 9.77641 9.14084 9.83636 9.04358 9.93372C8.93246 10.045 8.87026 10.1958 8.87024 10.353V25.6881H32.1667V10.353L32.1637 10.2944ZM34.6667 25.6881H36.3336C37.0239 25.6882 37.5836 26.2478 37.5836 26.9381V29.2129C37.5836 30.2144 37.1208 31.1279 36.3763 31.7697C35.6377 32.4063 34.67 32.7395 33.6932 32.7395H7.30652C6.3321 32.7462 5.38668 32.4074 4.63867 31.7825L4.63928 31.7819C4.26462 31.4704 3.9612 31.0823 3.75061 30.6429C3.56574 30.2572 3.45605 29.8405 3.42651 29.4149L3.41858 29.2318L3.41675 26.9387C3.41658 26.6071 3.54797 26.2889 3.78235 26.0543C4.01679 25.8197 4.33508 25.6881 4.66675 25.6881H6.37024V10.353C6.37026 9.53313 6.6959 8.74676 7.27539 8.16675C7.85484 7.58685 8.64066 7.26055 9.46045 7.25977H31.5759L31.7297 7.26343C32.4937 7.30205 33.2184 7.62306 33.7616 8.16675C34.3411 8.74676 34.6667 9.53314 34.6667 10.353V25.6881Z" fill="white"/>
</svg>
